<svg xmlns="http://www.w3.org/2000/svg" width="48.688" height="66.5" viewBox="0 0 48.688 66.5">
  <g id="Oroko_Small_Logo_Color" data-name="Oroko Small Logo Color" transform="translate(0.774 0.75)">
    <path id="Pfad_9" data-name="Pfad 9" d="M309.112,1774.6s-7.665,6.745-2.749,14.616c5.7,9.122,6.253,12.526,6.286,12.724l4.626-11.937s-8.163-5.664-8.163-15.638" transform="translate(-304.718 -1755.593)" fill="#ff4948" stroke="#000" stroke-width="1.5"/>
    <path id="Pfad_7" data-name="Pfad 7" d="M325.783,1940.7l22.717-.261,11.8,30.766H314.569l11.875-31.794" transform="translate(-313.706 -1906.203)" fill="#27abfe" stroke="#000" stroke-width="1.5"/>
    <path id="Pfad_8" data-name="Pfad 8" d="M319.6,2126.07s7.224-5.615,8.568.893c1.273,5.235,8.7-.111,8.7-.111s9.126-6.681,9.268,0c-.141,4.285,5.1,4.874,8.862-1.045l5.308,13.647H314.569Z" transform="translate(-313.706 -2074.455)" fill="#339d43" stroke="#000" stroke-width="1.5"/>
    <path id="Pfad_10" data-name="Pfad 10" d="M709.479,1777.053s7.978,6.722,3.062,14.594c-5.532,8.858-6.134,12.634-6.134,12.634l-4.61-11.973a19.3,19.3,0,0,0,7.682-15.193" transform="translate(-667.002 -1758.043)" fill="#ff4948" stroke="#000" stroke-width="1.5"/>
    <path id="Pfad_11" data-name="Pfad 11" d="M565.017,1993.665v27.04h2.435v-27.04A16.245,16.245,0,0,1,565.017,1993.665Z" transform="translate(-542.801 -1955.705)" fill="#ff6a37" stroke="#000" stroke-width="1.5"/>
    <path id="Pfad_12" data-name="Pfad 12" d="M392.949,1578.791a19.041,19.041,0,1,1-19.041-19.041A19.041,19.041,0,0,1,392.949,1578.791Z" transform="translate(-350.473 -1559.75)" fill="#ffc928" stroke="#000" stroke-width="1.5"/>
    <circle id="Ellipse_3" data-name="Ellipse 3" cx="11.358" cy="11.358" r="11.358" transform="translate(12.077 7.591)" fill="#ff6a37" stroke="#000" stroke-width="1.5"/>
    <circle id="Ellipse_4" data-name="Ellipse 4" cx="4.126" cy="4.126" r="4.126" transform="translate(19.309 14.899)" fill="#ff4948" stroke="#000" stroke-width="1.5"/>
  </g>
</svg>
