<svg xmlns="http://www.w3.org/2000/svg" width="48.417" height="66" viewBox="0 0 48.417 66">
  <g id="Oroko_Small_Logo_White_Lines" data-name="Oroko Small Logo White Lines" transform="translate(1.025 1)">
    <path id="Pfad_23" data-name="Pfad 23" d="M4481.979,744.177c2.333-1.471,8.027-4.523,8.138.654-.14,4.178,5.018,4.753,8.718-1.019l5.222,13.308h-45l4.946-13.051s7.107-5.476,8.43.871c1.089,4.436,6.75,1.081,8.215.126" transform="translate(-4458.219 -693.119)" fill="none" stroke="#fff" stroke-width="2"/>
    <path id="Pfad_24" data-name="Pfad 24" d="M4853.778,395.106s7.78,6.555,2.986,14.231c-5.394,8.637-5.982,12.319-5.982,12.319l-4.5-11.675a18.821,18.821,0,0,0,7.491-14.815" transform="translate(-4811.96 -375.755)" fill="none" stroke="#fff" stroke-width="2"/>
    <rect id="Rechteck_2" data-name="Rechteck 2" width="1.219" height="26.282" transform="translate(22.439 37.718)" fill="none" stroke="#fff" stroke-width="2"/>
    <path id="Pfad_25" data-name="Pfad 25" d="M4536.892,196.371a18.809,18.809,0,0,1-32.276,12.888,18.4,18.4,0,0,1-5.257-12.888,18.768,18.768,0,0,1,37.533,0Z" transform="translate(-4495.074 -177.804)" fill="none" stroke="#fff" stroke-width="2"/>
    <path id="Pfad_26" data-name="Pfad 26" d="M4492.451,569.452a18.874,18.874,0,0,1-22.049.229l-.131,0-11.21,29.748h45Z" transform="translate(-4458.218 -535.43)" fill="none" stroke="#fff" stroke-width="2"/>
    <path id="Pfad_27" data-name="Pfad 27" d="M4499.359,392.421v.229c0-.038,0-.076,0-.114S4499.359,392.46,4499.359,392.421Z" transform="translate(-4495.074 -373.303)" fill="none" stroke="#fff" stroke-width="2"/>
    <path id="Pfad_28" data-name="Pfad 28" d="M4460.985,410.009a18.717,18.717,0,0,1-2.29-2.016,18.506,18.506,0,0,1-5.2-12.888s-7.474,6.577-2.68,14.253c5.555,8.895,6.046,12.174,6.079,12.368l4.331-11.543Z" transform="translate(-4449.209 -375.758)" fill="none" stroke="#fff" stroke-width="2"/>
    <circle id="Ellipse_5" data-name="Ellipse 5" cx="11.076" cy="11.076" r="11.076" transform="translate(11.974 7.402)" fill="none" stroke="#fff" stroke-width="2"/>
    <circle id="Ellipse_6" data-name="Ellipse 6" cx="4.023" cy="4.023" r="4.023" transform="translate(19.027 14.953)" fill="none" stroke="#fff" stroke-width="2"/>
  </g>
</svg>
