<svg id="Discord_Icon" data-name="Discord Icon" xmlns="http://www.w3.org/2000/svg" width="51" height="51" viewBox="0 0 51 51">
  <g id="Circle_Button" data-name="Circle Button">
    <g id="Ellipse_8" data-name="Ellipse 8" fill="#fff" stroke="#000" stroke-width="2">
      <circle cx="25.5" cy="25.5" r="25.5" stroke="none"/>
      <circle cx="25.5" cy="25.5" r="24.5" fill="none"/>
    </g>
  </g>
  <path id="Icon_awesome-discord" data-name="Icon awesome-discord" d="M16.8,13.749a1.481,1.481,0,1,1-1.476-1.606A1.542,1.542,0,0,1,16.8,13.749Zm-6.759-1.606a1.612,1.612,0,0,0,0,3.213,1.542,1.542,0,0,0,1.476-1.606A1.533,1.533,0,0,0,10.044,12.143ZM25.327,2.981V28.945c-3.646-3.222-2.48-2.156-6.715-6.093l.767,2.677H2.967A2.974,2.974,0,0,1,0,22.548V2.981A2.974,2.974,0,0,1,2.967,0H22.36A2.974,2.974,0,0,1,25.327,2.981ZM21.2,16.7a19.381,19.381,0,0,0-2.084-8.438,7.157,7.157,0,0,0-4.067-1.52l-.2.232a9.632,9.632,0,0,1,3.6,1.838,12.3,12.3,0,0,0-10.811-.42c-.535.246-.854.42-.854.42a9.764,9.764,0,0,1,3.806-1.9l-.145-.174a7.157,7.157,0,0,0-4.067,1.52A19.381,19.381,0,0,0,4.3,16.7a5.247,5.247,0,0,0,4.414,2.2s.535-.651.97-1.2a4.5,4.5,0,0,1-2.533-1.708c.213.149.564.342.593.362a10.55,10.55,0,0,0,9.031.507,8.282,8.282,0,0,0,1.664-.854,4.567,4.567,0,0,1-2.62,1.722c.434.55.955,1.172.955,1.172A5.29,5.29,0,0,0,21.2,16.7Z" transform="translate(12.836 12)"/>
</svg>
