<svg xmlns="http://www.w3.org/2000/svg" id="Ebene_1" data-name="Ebene 1" viewBox="26 26 61.41 61.41"><defs><style>.cls-1{fill:#1d1d1b;}</style></defs><g id="Instagram_Circle" data-name="Instagram Circle"><path class="cls-1" d="M75.12,26H38.26A12.28,12.28,0,0,0,26,38.26V75.12A12.28,12.28,0,0,0,38.26,87.41H75.12A12.29,12.29,0,0,0,87.41,75.12V38.26A12.28,12.28,0,0,0,75.12,26ZM69,35.19h9.21v9.22H69ZM56.69,44.41A12.29,12.29,0,1,1,44.41,56.69,12.28,12.28,0,0,1,56.69,44.41ZM81.26,75.12a6.14,6.14,0,0,1-6.14,6.14H38.26a6.14,6.14,0,0,1-6.14-6.14V53.62h6.45a19.48,19.48,0,0,0-.31,3.07,18.43,18.43,0,1,0,36.55-3.07h6.45Z"/></g></svg>