<svg id="Instagram" xmlns="http://www.w3.org/2000/svg" width="51" height="51" viewBox="0 0 51 51">
  <g id="Circle_Button" data-name="Circle Button">
    <g id="Ellipse_8" data-name="Ellipse 8" fill="#fff" stroke="#000" stroke-width="2">
      <circle cx="25.5" cy="25.5" r="25.5" stroke="none"/>
      <circle cx="25.5" cy="25.5" r="24.5" fill="none"/>
    </g>
  </g>
  <g id="Instagram_Circle" data-name="Instagram Circle" transform="translate(12.5 13)">
    <path id="Pfad_29" data-name="Pfad 29" d="M46.779,25.979h-15.6a5.2,5.2,0,0,0-5.2,5.2v15.6a5.2,5.2,0,0,0,5.2,5.2h15.6a5.2,5.2,0,0,0,5.2-5.2v-15.6A5.2,5.2,0,0,0,46.779,25.979Zm-2.6,3.9h3.9v3.9h-3.9Zm-5.2,3.9a5.2,5.2,0,1,1-5.2,5.2A5.2,5.2,0,0,1,38.979,33.779Zm10.4,13a2.6,2.6,0,0,1-2.6,2.6h-15.6a2.6,2.6,0,0,1-2.6-2.6v-9.1H31.31a7.79,7.79,0,1,0,15.47,1.3,7.715,7.715,0,0,0-.131-1.3h2.73Z" transform="translate(-25.979 -25.979)"/>
  </g>
</svg>
