<svg id="TikTok" xmlns="http://www.w3.org/2000/svg" width="51" height="51" viewBox="0 0 51 51">
  <g id="Gruppe_33" data-name="Gruppe 33">
    <g id="Ellipse_9" data-name="Ellipse 9" fill="#fff" stroke="#000" stroke-width="2">
      <circle cx="25.5" cy="25.5" r="25.5" stroke="none"/>
      <circle cx="25.5" cy="25.5" r="24.5" fill="none"/>
    </g>
  </g>
  <path id="Icon_simple-tiktok" data-name="Icon simple-tiktok" d="M15.492.024C17.062,0,18.62.012,20.178,0a7.465,7.465,0,0,0,2.1,5,8.451,8.451,0,0,0,5.081,2.145v4.83a12.827,12.827,0,0,1-5.033-1.162A14.807,14.807,0,0,1,20.382,9.7c-.012,3.5.012,7-.024,10.486A9.153,9.153,0,0,1,18.74,24.9a8.928,8.928,0,0,1-7.083,3.847,8.738,8.738,0,0,1-4.89-1.234,9.037,9.037,0,0,1-4.374-6.843c-.024-.6-.036-1.2-.012-1.786a9.022,9.022,0,0,1,10.462-8.005c.024,1.774-.048,3.547-.048,5.321a4.112,4.112,0,0,0-5.249,2.541,4.754,4.754,0,0,0-.168,1.929,4.079,4.079,0,0,0,4.194,3.439,4.026,4.026,0,0,0,3.32-1.929,2.765,2.765,0,0,0,.491-1.27c.12-2.145.072-4.278.084-6.423.012-4.83-.012-9.647.024-14.465Z" transform="translate(11.205 10.965)"/>
</svg>
