<svg xmlns="http://www.w3.org/2000/svg" xmlns:xlink="http://www.w3.org/1999/xlink" version="1.1" id="Ebene_1" x="0px" y="0px" style="enable-background:new 0 0 113.4 113.4;" xml:space="preserve" viewBox="26 26 62.03 62.03">
<path id="Icon_simple-tiktok" d="M58.4,26.1c3.4-0.1,6.7,0,10.1-0.1c0.1,4,1.7,7.9,4.5,10.8c3,2.7,6.9,4.3,10.9,4.6v10.4  c-3.7-0.1-7.4-0.9-10.8-2.5c-1.5-0.7-2.9-1.5-4.2-2.4c0,7.5,0,15.1-0.1,22.6c-0.2,3.6-1.4,7.2-3.5,10.2c-3.5,5-9.1,8.1-15.3,8.3  c-3.7,0.2-7.4-0.8-10.5-2.7c-5.3-3.1-8.8-8.6-9.4-14.7c-0.1-1.3-0.1-2.6,0-3.8C31.2,56,40.7,48.2,51.4,49.3c0.4,0,0.8,0.1,1.3,0.2  c0.1,3.8-0.1,7.6-0.1,11.5c-4.6-1.6-9.7,0.8-11.3,5.4c0,0,0,0,0,0c-0.4,1.3-0.5,2.8-0.4,4.2c0.7,4.4,4.6,7.6,9,7.4  c2.9-0.1,5.6-1.6,7.2-4.2C57.6,73,58,72,58.1,71c0.3-4.6,0.2-9.2,0.2-13.8C58.3,46.8,58.3,36.4,58.4,26.1L58.4,26.1z"/>
</svg>