<svg xmlns="http://www.w3.org/2000/svg" id="Ebene_1" data-name="Ebene 1" viewBox="26 26 61.44 61.44"><defs><style>.cls-1{fill:#1d1d1b;}</style></defs><g id="Twitter_Square" data-name="Twitter Square"><path class="cls-1" d="M85.71,33a25.31,25.31,0,0,1-8,3,12.69,12.69,0,0,0-9.2-3.91A12.42,12.42,0,0,0,56.23,47.35a35.91,35.91,0,0,1-26-13,12.19,12.19,0,0,0-1.71,6.24A12.37,12.37,0,0,0,34.15,51a12.76,12.76,0,0,1-5.7-1.56v.16A12.46,12.46,0,0,0,38.56,61.72a12.57,12.57,0,0,1-3.33.44,12.37,12.37,0,0,1-2.37-.23,12.6,12.6,0,0,0,11.78,8.62A25.54,25.54,0,0,1,29,75.86a27.19,27.19,0,0,1-3-.17A36.08,36.08,0,0,0,45.3,81.26c23.18,0,35.85-18.9,35.85-35.29,0-.54,0-1.08,0-1.61a25.42,25.42,0,0,0,6.29-6.42,25.4,25.4,0,0,1-7.24,2A12.45,12.45,0,0,0,85.71,33Z"/></g></svg>