<svg id="Twitter" xmlns="http://www.w3.org/2000/svg" width="51" height="51" viewBox="0 0 51 51">
  <g id="Ellipse_9" data-name="Ellipse 9" fill="#fff" stroke="#000" stroke-width="2">
    <circle cx="25.5" cy="25.5" r="25.5" stroke="none"/>
    <circle cx="25.5" cy="25.5" r="24.5" fill="none"/>
  </g>
  <g id="Twitter_Square" data-name="Twitter Square" transform="translate(10.629 15.11)">
    <path id="Pfad_30" data-name="Pfad 30" d="M54.413,32.557a12.108,12.108,0,0,1-3.81,1.432,6.04,6.04,0,0,0-4.379-1.863,5.952,5.952,0,0,0-6,5.9,5.861,5.861,0,0,0,.155,1.345,17.12,17.12,0,0,1-12.365-6.17,5.808,5.808,0,0,0-.813,2.97,5.881,5.881,0,0,0,2.669,4.915,6.053,6.053,0,0,1-2.717-.739c0,.026,0,.05,0,.074a5.932,5.932,0,0,0,4.813,5.79,6.112,6.112,0,0,1-2.709.1,5.994,5.994,0,0,0,5.6,4.1,12.151,12.151,0,0,1-7.45,2.527,12.45,12.45,0,0,1-1.431-.081,17.183,17.183,0,0,0,9.2,2.653,16.812,16.812,0,0,0,17.069-16.8c0-.256-.006-.511-.017-.764a12.084,12.084,0,0,0,2.993-3.056,12.167,12.167,0,0,1-3.445.929A5.942,5.942,0,0,0,54.413,32.557Z" transform="translate(-25.979 -32.126)" fill="#161615"/>
  </g>
</svg>
