<svg xmlns="http://www.w3.org/2000/svg" width="1921.409" height="600" viewBox="0 0 1921.409 600">
  <g id="Contact_BG" data-name="Contact BG" transform="translate(0.77)">
    <rect id="Rechteck_13" data-name="Rechteck 13" width="1920" height="600" fill="#339d43"/>
    <path id="Pfad_36" data-name="Pfad 36" d="M1577.2,1301.6c-28.174,9.5-55.5,20.3-82.52,31.3-29.146,11.9-58.717,26.9-91.324,33.7-55.256,11.6-55.317-50.6-65.275-77.3-74.808-200.2-404.22-90.5-546.975-27.4-41.351,18.3-112.085,48.124-74.93,5.2,22.77-25.8,44.326-53.4,56.835-83.5,8.015-19.1,17.548-49.7-8.987-65.9-27.142-16.6-70.922-7.8-98.49-1.8-122.353,26.8-230.436,86.9-330.748,141.7-35.34,19.3-69.465,41.3-107.537,57.8-12.084,5.2-24.167,9.4-21.131-4.9,4.858-22.4,22.953-44.4,33.761-65.1,13.3-25.6,26.353-52.1,31.089-79.9,3.036-17.9,4.615-45.1-23.074-55-31.879-11.3-74.444,4.7-100.918,14.2-32.911,11.8-261.222,106.5-489.776,201.9" transform="translate(342.8 -920.585)" fill="none" stroke="#ff9500" stroke-width="4"/>
  </g>
</svg>
