<svg xmlns="http://www.w3.org/2000/svg" width="245.39" height="260" viewBox="0 0 245.39 380">
  <g id="Oroko_Full_Logo_Color_Title" data-name="Oroko Full Logo Color Title" transform="translate(0 1.5)">
    <path id="Pfad_9" data-name="Pfad 9" d="M327.155,1775.57s-39.138,34.438-14.034,74.633c29.09,46.578,31.928,63.957,32.095,64.969l23.619-60.952s-41.68-28.923-41.68-79.851" transform="translate(-301.632 -1678.343)" fill="#ff4948" stroke="#000" stroke-width="3"/>
    <path id="Pfad_7" data-name="Pfad 7" d="M371.827,1945.992l116-1.332,60.274,157.1H314.569l60.637-162.347" transform="translate(-307.076 -1769.541)" fill="#27abfe" stroke="#000" stroke-width="3"/>
    <path id="Pfad_8" data-name="Pfad 8" d="M340.239,2135.313s36.887-28.674,43.751,4.561c6.5,26.732,44.433-.565,44.433-.565s46.6-34.114,47.323,0c-.722,21.878,26.046,24.888,45.248-5.337l27.1,69.686H314.569Z" transform="translate(-307.076 -1871.443)" fill="#339d43" stroke="#000" stroke-width="3"/>
    <path id="Pfad_10" data-name="Pfad 10" d="M741.025,1777.053s40.738,34.326,15.635,74.521c-28.247,45.228-31.323,64.509-31.323,64.509l-23.54-61.137s39.228-26.65,39.228-77.578" transform="translate(-521.049 -1679.827)" fill="#ff4948" stroke="#000" stroke-width="3"/>
    <path id="Pfad_11" data-name="Pfad 11" d="M565.017,1993.665v138.071H571.4V1993.665A21.974,21.974,0,0,1,565.017,1993.665Z" transform="translate(-445.468 -1799.522)" fill="#ff6a37" stroke="#000" stroke-width="3"/>
    <path id="Pfad_12" data-name="Pfad 12" d="M549.319,1656.976a97.226,97.226,0,1,1-97.226-97.226A97.226,97.226,0,0,1,549.319,1656.976Z" transform="translate(-329.343 -1559.75)" fill="#ffc928" stroke="#000" stroke-width="3"/>
    <circle id="Ellipse_3" data-name="Ellipse 3" cx="57.997" cy="57.997" r="57.997" transform="translate(64.752 38.76)" fill="#ff6a37" stroke="#000" stroke-width="3"/>
    <circle id="Ellipse_4" data-name="Ellipse 4" cx="21.068" cy="21.068" r="21.068" transform="translate(101.682 76.158)" fill="#ff4948" stroke="#000" stroke-width="3"/>
  </g>
</svg>
