<svg xmlns="http://www.w3.org/2000/svg" width="245.39" height="486.438" viewBox="0 0 245.39 486.438">
  <g id="Oroko_Full_Logo_Color_Title" data-name="Oroko Full Logo Color Title" transform="translate(0 1.5)">
    <path id="Pfad_9" data-name="Pfad 9" d="M327.155,1775.57s-39.138,34.438-14.034,74.633c29.09,46.578,31.928,63.957,32.095,64.969l23.619-60.952s-41.68-28.923-41.68-79.851" transform="translate(-301.632 -1678.343)" fill="#ff4948" stroke="#000" stroke-width="3"/>
    <path id="Pfad_7" data-name="Pfad 7" d="M371.827,1945.992l116-1.332,60.274,157.1H314.569l60.637-162.347" transform="translate(-307.076 -1769.541)" fill="#27abfe" stroke="#000" stroke-width="3"/>
    <path id="Pfad_8" data-name="Pfad 8" d="M340.239,2135.313s36.887-28.674,43.751,4.561c6.5,26.732,44.433-.565,44.433-.565s46.6-34.114,47.323,0c-.722,21.878,26.046,24.888,45.248-5.337l27.1,69.686H314.569Z" transform="translate(-307.076 -1871.443)" fill="#339d43" stroke="#000" stroke-width="3"/>
    <path id="Pfad_10" data-name="Pfad 10" d="M741.025,1777.053s40.738,34.326,15.635,74.521c-28.247,45.228-31.323,64.509-31.323,64.509l-23.54-61.137s39.228-26.65,39.228-77.578" transform="translate(-521.049 -1679.827)" fill="#ff4948" stroke="#000" stroke-width="3"/>
    <path id="Pfad_11" data-name="Pfad 11" d="M565.017,1993.665v138.071H571.4V1993.665A21.974,21.974,0,0,1,565.017,1993.665Z" transform="translate(-445.468 -1799.522)" fill="#ff6a37" stroke="#000" stroke-width="3"/>
    <path id="Pfad_12" data-name="Pfad 12" d="M549.319,1656.976a97.226,97.226,0,1,1-97.226-97.226A97.226,97.226,0,0,1,549.319,1656.976Z" transform="translate(-329.343 -1559.75)" fill="#ffc928" stroke="#000" stroke-width="3"/>
    <circle id="Ellipse_3" data-name="Ellipse 3" cx="57.997" cy="57.997" r="57.997" transform="translate(64.752 38.76)" fill="#ff6a37" stroke="#000" stroke-width="3"/>
    <circle id="Ellipse_4" data-name="Ellipse 4" cx="21.068" cy="21.068" r="21.068" transform="translate(101.682 76.158)" fill="#ff4948" stroke="#000" stroke-width="3"/>
    <path id="Pfad_13" data-name="Pfad 13" d="M297.821,2405.395a44.539,44.539,0,0,1,1.441-11.861,24.675,24.675,0,0,1,4.152-8.682,18.742,18.742,0,0,1,6.565-5.375,22.08,22.08,0,0,1,8.7-2.151,46.994,46.994,0,0,1,7.961.606,25.323,25.323,0,0,1,6.416,1.967,16.2,16.2,0,0,1,4.976,3.535,19.329,19.329,0,0,1,3.488,5.284,28.207,28.207,0,0,1,2.105,7.252,59.124,59.124,0,0,1,.675,9.425,43.876,43.876,0,0,1-1.464,11.861,24.357,24.357,0,0,1-4.221,8.67,19.067,19.067,0,0,1-6.623,5.353,22.343,22.343,0,0,1-8.738,2.139,46.627,46.627,0,0,1-7.927-.606,25.224,25.224,0,0,1-6.382-1.956,16.071,16.071,0,0,1-4.941-3.512,18.914,18.914,0,0,1-3.454-5.273,28.54,28.54,0,0,1-2.07-7.24A59.959,59.959,0,0,1,297.821,2405.395Zm19.124,0q0,3.2.217,5.445a24.368,24.368,0,0,0,.549,3.534,5.267,5.267,0,0,0,.9,2,2.747,2.747,0,0,0,1.144.915,4.141,4.141,0,0,0,1.4.206,3.94,3.94,0,0,0,1.373-.206,2.656,2.656,0,0,0,1.1-.915,5.273,5.273,0,0,0,.858-2,25.493,25.493,0,0,0,.5-3.534q.194-2.242.194-5.445,0-2.654-.137-4.655a22.178,22.178,0,0,0-.434-3.306,13.889,13.889,0,0,0-.641-2.139,2.926,2.926,0,0,0-.881-1.246,3.284,3.284,0,0,0-1.029-.561,4.114,4.114,0,0,0-1.178-.149,4.161,4.161,0,0,0-1.155.137,2.547,2.547,0,0,0-.949.56,3.054,3.054,0,0,0-.789,1.258,13.914,13.914,0,0,0-.561,2.151,25.942,25.942,0,0,0-.366,3.294Q316.945,2402.718,316.945,2405.395Z" transform="translate(-297.821 -2011.525)"/>
    <path id="Pfad_14" data-name="Pfad 14" d="M412.757,2404.228q0-4.575.091-12.673t.092-12.673q4.575-.709,9.734-1.133t9.024-.423q3.34,0,5.6.1t4.884.458a19.03,19.03,0,0,1,4.312,1.018,16.81,16.81,0,0,1,3.386,1.83,8.6,8.6,0,0,1,2.642,2.836,16.036,16.036,0,0,1,1.544,4.1,23.441,23.441,0,0,1,.595,5.558,15.188,15.188,0,0,1-2.562,8.739,17.275,17.275,0,0,1-7.137,5.925,9.419,9.419,0,0,1,5.055,4.392,91.005,91.005,0,0,1,7.275,20.588,81.507,81.507,0,0,1-9.585.5q-3.889,0-7.343-.229a1.786,1.786,0,0,1-.847-.274,1.229,1.229,0,0,1-.549-.64q-4.46-13.542-6.931-21.87h-1.212q.045,2.563.217,10.5t.195,12.01q-3.752.16-8.03.16-3.866,0-9.356-.16a.9.9,0,0,1-.915-.915q0-4.232-.092-13.657T412.757,2404.228Zm18.026-5.124h1.556a5.4,5.4,0,0,0,3.512-1.087,3.515,3.515,0,0,0,1.338-2.871,5.086,5.086,0,0,0-.915-3.328,4.072,4.072,0,0,0-3.248-1.087q-1.19,0-2.2.068Q430.783,2396.154,430.783,2399.1Z" transform="translate(-361.332 -2011.525)"/>
    <path id="Pfad_15" data-name="Pfad 15" d="M515.832,2405.395a44.535,44.535,0,0,1,1.441-11.861,24.677,24.677,0,0,1,4.152-8.682,18.751,18.751,0,0,1,6.565-5.375,22.082,22.082,0,0,1,8.7-2.151,46.991,46.991,0,0,1,7.961.606,25.342,25.342,0,0,1,6.417,1.967,16.188,16.188,0,0,1,4.975,3.535,19.341,19.341,0,0,1,3.489,5.284,28.227,28.227,0,0,1,2.105,7.252,59.12,59.12,0,0,1,.675,9.425,43.912,43.912,0,0,1-1.464,11.861,24.357,24.357,0,0,1-4.221,8.67,19.067,19.067,0,0,1-6.623,5.353,22.344,22.344,0,0,1-8.738,2.139,46.622,46.622,0,0,1-7.926-.606,25.233,25.233,0,0,1-6.383-1.956,16.069,16.069,0,0,1-4.94-3.512,18.913,18.913,0,0,1-3.455-5.273,28.545,28.545,0,0,1-2.07-7.24A59.959,59.959,0,0,1,515.832,2405.395Zm19.124,0q0,3.2.217,5.445a24.3,24.3,0,0,0,.549,3.534,5.261,5.261,0,0,0,.9,2,2.747,2.747,0,0,0,1.144.915,4.139,4.139,0,0,0,1.4.206,3.942,3.942,0,0,0,1.373-.206,2.652,2.652,0,0,0,1.1-.915,5.266,5.266,0,0,0,.858-2,25.5,25.5,0,0,0,.5-3.534q.194-2.242.194-5.445,0-2.654-.137-4.655a22.138,22.138,0,0,0-.434-3.306,13.913,13.913,0,0,0-.641-2.139,2.926,2.926,0,0,0-.881-1.246,3.285,3.285,0,0,0-1.029-.561,4.108,4.108,0,0,0-1.178-.149,4.161,4.161,0,0,0-1.155.137,2.545,2.545,0,0,0-.95.56,3.06,3.06,0,0,0-.789,1.258,13.918,13.918,0,0,0-.561,2.151,25.949,25.949,0,0,0-.366,3.294Q534.957,2402.718,534.956,2405.395Z" transform="translate(-418.289 -2011.525)"/>
    <path id="Pfad_16" data-name="Pfad 16" d="M630.359,2405.644q0-12.81.366-27.451,4.346-.206,8.007-.206,3.775,0,9.379.206a.938.938,0,0,1,.915.915q.023,1.075.023,3.226,0,2.288-.343,15.1.32,0,.995-.011t1.018-.011q.846-2.561,3.042-8.91t3.272-9.62a1.231,1.231,0,0,1,.549-.64,1.794,1.794,0,0,1,.846-.274q3.454-.228,7.343-.229a77.142,77.142,0,0,1,9.128.5,96.085,96.085,0,0,1-7.733,21.687q-2.7,4.6-7.137,4.85v.137a8.355,8.355,0,0,1,4.232,1.407,10.429,10.429,0,0,1,3.18,3.442q4.026,7.939,7.64,23.334a81.618,81.618,0,0,1-9.585.5q-3.89,0-7.344-.229a1.794,1.794,0,0,1-.846-.274,1.231,1.231,0,0,1-.549-.641q-2.242-6.839-6.36-21.755h-1.762q.024.755.229,7.789t.206,10.695q0,1.3-.046,3.912-4.346.205-8.007.206-3.774,0-9.379-.206a.937.937,0,0,1-.915-.915Q630.359,2414.977,630.359,2405.644Z" transform="translate(-481.574 -2011.751)"/>
    <path id="Pfad_17" data-name="Pfad 17" d="M732.412,2405.395a44.533,44.533,0,0,1,1.441-11.861,24.668,24.668,0,0,1,4.152-8.682,18.746,18.746,0,0,1,6.565-5.375,22.08,22.08,0,0,1,8.7-2.151,46.985,46.985,0,0,1,7.961.606,25.331,25.331,0,0,1,6.417,1.967,16.2,16.2,0,0,1,4.975,3.535,19.352,19.352,0,0,1,3.489,5.284,28.242,28.242,0,0,1,2.1,7.252,59.063,59.063,0,0,1,.675,9.425,43.9,43.9,0,0,1-1.464,11.861,24.358,24.358,0,0,1-4.221,8.67,19.065,19.065,0,0,1-6.623,5.353,22.347,22.347,0,0,1-8.739,2.139,46.623,46.623,0,0,1-7.927-.606,25.22,25.22,0,0,1-6.382-1.956,16.07,16.07,0,0,1-4.941-3.512,18.926,18.926,0,0,1-3.455-5.273,28.542,28.542,0,0,1-2.07-7.24A60,60,0,0,1,732.412,2405.395Zm19.124,0q0,3.2.217,5.445a24.249,24.249,0,0,0,.549,3.534,5.261,5.261,0,0,0,.9,2,2.744,2.744,0,0,0,1.144.915,4.137,4.137,0,0,0,1.4.206,3.939,3.939,0,0,0,1.372-.206,2.653,2.653,0,0,0,1.1-.915,5.255,5.255,0,0,0,.858-2,25.348,25.348,0,0,0,.5-3.534q.194-2.242.195-5.445,0-2.654-.137-4.655a22.129,22.129,0,0,0-.435-3.306,13.893,13.893,0,0,0-.641-2.139,2.926,2.926,0,0,0-.88-1.246,3.292,3.292,0,0,0-1.03-.561,4.111,4.111,0,0,0-1.178-.149,4.163,4.163,0,0,0-1.155.137,2.542,2.542,0,0,0-.949.56,3.059,3.059,0,0,0-.79,1.258,13.867,13.867,0,0,0-.56,2.151,25.781,25.781,0,0,0-.366,3.294Q751.536,2402.718,751.536,2405.395Z" transform="translate(-537.967 -2011.525)"/>
    <path id="Pfad_18" data-name="Pfad 18" d="M330.235,2545.137q0-4.575.092-12.673t.091-12.673q4.575-.709,9.734-1.132t9.025-.423q3.339,0,5.6.1t4.884.457a19.062,19.062,0,0,1,4.312,1.018,16.766,16.766,0,0,1,3.386,1.831A8.581,8.581,0,0,1,370,2524.48a16.038,16.038,0,0,1,1.544,4.095,23.449,23.449,0,0,1,.6,5.559,15.188,15.188,0,0,1-2.562,8.738,17.268,17.268,0,0,1-7.137,5.925,9.424,9.424,0,0,1,5.056,4.392,91.05,91.05,0,0,1,7.274,20.589,81.56,81.56,0,0,1-9.585.5q-3.889,0-7.343-.229a1.786,1.786,0,0,1-.847-.274,1.232,1.232,0,0,1-.549-.641q-4.461-13.541-6.932-21.87h-1.213q.046,2.563.217,10.5t.195,12.01q-3.752.159-8.03.159-3.866,0-9.356-.159a.9.9,0,0,1-.915-.915q0-4.232-.091-13.657T330.235,2545.137Zm18.026-5.124h1.555a5.4,5.4,0,0,0,3.512-1.087,3.514,3.514,0,0,0,1.338-2.871,5.085,5.085,0,0,0-.915-3.329,4.072,4.072,0,0,0-3.248-1.087q-1.191,0-2.2.069Q348.261,2537.062,348.261,2540.013Z" transform="translate(-315.732 -2089.389)"/>
    <path id="Pfad_19" data-name="Pfad 19" d="M429.987,2573.56q0-.365.434-2.859,1.213-7.526,2.769-15.59t4.026-20.017q2.471-11.952,3.225-15.681,4.575-.206,12.582-.206,7.457,0,13.039.206a1.14,1.14,0,0,1,1.075.915q1.006,5.1,3.42,16.677t4.118,20.462q1.7,8.888,2.917,16.848-4.323.206-7.961.206-5.833,0-8.968-.206a1.149,1.149,0,0,1-.7-.285,1.066,1.066,0,0,1-.378-.629q-1.029-5.261-1.67-9.15h-8.487q-.733,4.895-1.762,10.065-4.392.206-7.572.206-3.8,0-9.356-.206a.721.721,0,0,1-.549-.216A.754.754,0,0,1,429.987,2573.56Zm20.977-21.206h5.147q-.549-3.752-1.487-10.695t-1.349-9.825q-.458,3.728-1.212,10.694T450.964,2552.354Z" transform="translate(-370.853 -2089.926)"/>
    <path id="Pfad_20" data-name="Pfad 20" d="M544.157,2546.327q0-4.575.091-13.268t.091-13.268a119.425,119.425,0,0,1,17.844-1.555,39.394,39.394,0,0,1,8.579.846,21.871,21.871,0,0,1,6.943,2.848,17.145,17.145,0,0,1,5.25,5.193,25.5,25.5,0,0,1,3.238,8.006,48.231,48.231,0,0,1,1.155,11.175,63.5,63.5,0,0,1-.355,6.966,41.258,41.258,0,0,1-1.018,5.753,23.528,23.528,0,0,1-1.693,4.621,19.5,19.5,0,0,1-2.288,3.6,14.8,14.8,0,0,1-2.894,2.711,17.873,17.873,0,0,1-3.419,1.921,22.058,22.058,0,0,1-3.969,1.224,35.809,35.809,0,0,1-4.426.664q-2.243.193-4.918.194-.915,0-1.979-.034t-1.864-.057q-.8-.023-2.173-.115t-1.991-.125q-.618-.035-2.3-.183t-2.1-.183q-.424-.034-2.414-.206t-2.287-.194a.938.938,0,0,1-.915-.915q0-4.232-.091-12.6T544.157,2546.327Zm18.118,0q0,5.444.16,12.079h1.556a4.109,4.109,0,0,0,1.178-.149,3.185,3.185,0,0,0,1.018-.561,2.979,2.979,0,0,0,.869-1.246,12.535,12.535,0,0,0,.618-2.151,25.173,25.173,0,0,0,.412-3.317q.138-2,.137-4.678,0-3.18-.218-5.421a24.389,24.389,0,0,0-.549-3.534,5.259,5.259,0,0,0-.915-2.013,2.819,2.819,0,0,0-1.144-.926,4.12,4.12,0,0,0-1.407-.206h-1.533Q562.274,2541.8,562.275,2546.327Z" transform="translate(-433.941 -2089.389)"/>
    <path id="Pfad_21" data-name="Pfad 21" d="M651.322,2546.864q0-12.81.366-27.451,4.346-.206,8.007-.206,3.774,0,9.378.206a.938.938,0,0,1,.915.915q.365,17.2.366,26.536,0,12.811-.366,27.451-4.346.206-8.007.206-3.774,0-9.379-.206a.937.937,0,0,1-.915-.915Q651.322,2556.2,651.322,2546.864Z" transform="translate(-493.158 -2089.926)"/>
    <path id="Pfad_22" data-name="Pfad 22" d="M704.5,2546.3a44.533,44.533,0,0,1,1.441-11.861,24.661,24.661,0,0,1,4.153-8.682,18.75,18.75,0,0,1,6.565-5.376,22.078,22.078,0,0,1,8.7-2.15,47.01,47.01,0,0,1,7.961.606,25.331,25.331,0,0,1,6.417,1.967,16.2,16.2,0,0,1,4.975,3.535,19.355,19.355,0,0,1,3.489,5.284,28.244,28.244,0,0,1,2.1,7.252,59.062,59.062,0,0,1,.675,9.425,43.892,43.892,0,0,1-1.464,11.861,24.363,24.363,0,0,1-4.221,8.67,19.066,19.066,0,0,1-6.623,5.353,22.338,22.338,0,0,1-8.739,2.139,46.622,46.622,0,0,1-7.926-.606,25.22,25.22,0,0,1-6.382-1.956,16.061,16.061,0,0,1-4.941-3.512,18.926,18.926,0,0,1-3.455-5.273,28.549,28.549,0,0,1-2.07-7.24A60.012,60.012,0,0,1,704.5,2546.3Zm19.124,0q0,3.2.217,5.445a24.25,24.25,0,0,0,.549,3.534,5.259,5.259,0,0,0,.9,2,2.748,2.748,0,0,0,1.144.915,4.148,4.148,0,0,0,1.4.206,3.951,3.951,0,0,0,1.372-.206,2.657,2.657,0,0,0,1.1-.915,5.257,5.257,0,0,0,.858-2,25.348,25.348,0,0,0,.5-3.534q.194-2.242.195-5.445,0-2.653-.137-4.656a22.114,22.114,0,0,0-.434-3.305,13.908,13.908,0,0,0-.641-2.139,2.926,2.926,0,0,0-.88-1.246,3.3,3.3,0,0,0-1.03-.561,4.1,4.1,0,0,0-1.178-.149,4.164,4.164,0,0,0-1.155.137,2.546,2.546,0,0,0-.949.56,3.065,3.065,0,0,0-.79,1.258,13.87,13.87,0,0,0-.56,2.15,25.814,25.814,0,0,0-.366,3.294Q723.62,2543.628,723.62,2546.3Z" transform="translate(-522.541 -2089.389)"/>
  </g>
</svg>
